<?xml version="1.0" encoding="UTF-8" standalone="no"?>
<svg
   xmlns:dc="http://purl.org/dc/elements/1.1/"
   xmlns:cc="http://creativecommons.org/ns#"
   xmlns:rdf="http://www.w3.org/1999/02/22-rdf-syntax-ns#"
   xmlns:svg="http://www.w3.org/2000/svg"
   xmlns="http://www.w3.org/2000/svg"
   xmlns:sodipodi="http://sodipodi.sourceforge.net/DTD/sodipodi-0.dtd"
   xmlns:inkscape="http://www.inkscape.org/namespaces/inkscape"
   inkscape:version="1.0 (4035a4f, 2020-05-01)"
   sodipodi:docname="random-scroll.svg"
   id="svg153"
   xml:space="preserve"
   viewBox="0 0 266.37229 152.84389"
   version="1.1"
   height="152.84389"
   width="266.37228"><defs
   id="defs157" /><sodipodi:namedview
   fit-margin-bottom="0"
   fit-margin-right="0"
   fit-margin-left="0"
   fit-margin-top="0"
   inkscape:current-layer="svg153"
   inkscape:window-maximized="1"
   inkscape:window-y="25"
   inkscape:window-x="0"
   inkscape:cy="46.090066"
   inkscape:cx="82.001661"
   inkscape:zoom="2.6395236"
   showgrid="false"
   id="namedview155"
   inkscape:window-height="936"
   inkscape:window-width="1680"
   inkscape:pageshadow="2"
   inkscape:pageopacity="0"
   guidetolerance="10"
   gridtolerance="10"
   objecttolerance="10"
   borderopacity="1"
   bordercolor="#666666"
   pagecolor="#000000" /><metadata
   id="metadata91"><rdf:RDF><cc:Work
       rdf:about=""><dc:format>image/svg+xml</dc:format><dc:type
         rdf:resource="http://purl.org/dc/dcmitype/StillImage" /><dc:title></dc:title></cc:Work></rdf:RDF></metadata>
















<text
   y="-39.312141"
   x="-115.97728"
   id="text93"
   xml:space="preserve"
   style="line-height:1.25;white-space:pre;shape-inside:url(#rect876);"
   font-size="40px"
   font-family="Trattatello" /><g
   style="fill:#ffffff;stroke:#ffffff"
   transform="matrix(0.44321322,0,0,0.81745842,-27.760944,-167.57932)"
   stroke-width="1.6479"
   aria-label="Scroll to top"
   id="g121"><g
     style="fill:#ffffff;stroke:#ffffff"
     transform="scale(1.3581,0.73633)"
     aria-label="Random Scroll"
     id="g119"><path
       style="fill:#ffffff;stroke:#ffffff"
       d="M 56.992,505.46 V 492.596 H 68 q 3.456,0 5.184,1.536 1.728,1.472 1.728,4.8 0,3.456 -1.728,4.992 Q 71.456,505.46 68,505.46 Z M 46.944,484.788 v 45.696 H 56.992 V 512.628 H 67.04 q 3.776,0 5.44,1.664 1.664,1.664 2.176,5.248 0.384,2.752 0.576,5.76 0.192,3.008 1.024,5.184 h 10.048 q -0.704,-0.96 -1.088,-2.304 -0.32,-1.408 -0.512,-2.944 -0.128,-1.536 -0.192,-3.008 -0.064,-1.472 -0.128,-2.56 -0.128,-1.728 -0.512,-3.456 -0.32,-1.728 -1.088,-3.136 -0.768,-1.472 -1.984,-2.496 -1.216,-1.088 -3.072,-1.6 v -0.128 q 3.84,-1.536 5.504,-4.48 1.728,-2.944 1.728,-6.976 0,-2.624 -0.96,-4.864 -0.896,-2.304 -2.688,-4.032 -1.728,-1.728 -4.224,-2.688 -2.432,-1.024 -5.504,-1.024 z"
       id="path95" /><path
       style="fill:#ffffff;stroke:#ffffff"
       d="m 91.85,507.57 q 0.192,-3.2 1.6,-5.312 1.408,-2.112 3.584,-3.392 2.176,-1.28 4.864,-1.792 2.752,-0.576 5.504,-0.576 2.496,0 5.056,0.384 2.56,0.32 4.672,1.344 2.112,1.024 3.456,2.88 1.344,1.792 1.344,4.8 v 17.216 q 0,2.24 0.256,4.288 0.256,2.048 0.896,3.072 h -9.216 q -0.256,-0.768 -0.448,-1.536 -0.128,-0.832 -0.192,-1.664 -2.176,2.24 -5.12,3.136 -2.944,0.896 -6.016,0.896 -2.368,0 -4.416,-0.576 -2.048,-0.576 -3.584,-1.792 -1.536,-1.216 -2.432,-3.072 -0.832,-1.856 -0.832,-4.416 0,-2.816 0.96,-4.608 1.024,-1.856 2.56,-2.944 1.6,-1.088 3.584,-1.6 2.048,-0.576 4.096,-0.896 2.048,-0.32 4.032,-0.512 1.984,-0.192 3.52,-0.576 1.536,-0.384 2.432,-1.088 0.896,-0.768 0.832,-2.176 0,-1.472 -0.512,-2.304 -0.448,-0.896 -1.28,-1.344 -0.768,-0.512 -1.856,-0.64 -1.024,-0.192 -2.24,-0.192 -2.688,0 -4.224,1.152 -1.536,1.152 -1.792,3.84 z m 20.992,6.72 q -0.576,0.512 -1.472,0.832 -0.832,0.256 -1.856,0.448 -0.96,0.192 -2.048,0.32 -1.088,0.128 -2.176,0.32 -1.024,0.192 -2.048,0.512 -0.96,0.32 -1.728,0.896 -0.704,0.512 -1.152,1.344 -0.448,0.832 -0.448,2.112 0,1.216 0.448,2.048 0.448,0.832 1.216,1.344 0.768,0.448 1.792,0.64 1.024,0.192 2.112,0.192 2.688,0 4.16,-0.896 1.472,-0.896 2.176,-2.112 0.704,-1.28 0.832,-2.56 0.192,-1.28 0.192,-2.048 z"
       id="path97" /><path
       style="fill:#ffffff;stroke:#ffffff"
       d="m 128.98,497.4 v 33.088 h 9.088 v -17.344 q 0,-5.056 1.664,-7.232 1.664,-2.24 5.376,-2.24 3.264,0 4.544,2.048 1.28,1.984 1.28,6.08 v 18.688 h 9.088 v -20.352 q 0,-3.072 -0.576,-5.568 -0.512,-2.56 -1.856,-4.288 -1.344,-1.792 -3.712,-2.752 -2.304,-1.024 -5.952,-1.024 -2.88,0 -5.632,1.344 -2.752,1.28 -4.48,4.16 H 137.62 V 497.4 Z"
       id="path99" /><path
       style="fill:#ffffff;stroke:#ffffff"
       d="m 190.47,513.84 q 0,2.048 -0.384,3.968 -0.384,1.92 -1.28,3.456 -0.896,1.472 -2.432,2.368 -1.472,0.896 -3.712,0.896 -2.112,0 -3.648,-0.896 -1.472,-0.96 -2.496,-2.432 -0.96,-1.536 -1.408,-3.456 -0.448,-1.92 -0.448,-3.84 0,-2.048 0.384,-3.904 0.448,-1.92 1.344,-3.392 0.96,-1.472 2.496,-2.368 1.536,-0.896 3.776,-0.896 2.24,0 3.712,0.896 1.472,0.896 2.368,2.368 0.96,1.408 1.344,3.328 0.384,1.856 0.384,3.904 z m 0.128,12.416 v 4.224 h 8.64 v -45.696 h -9.088 v 16.64 h -0.128 q -1.536,-2.432 -4.224,-3.648 -2.624,-1.28 -5.568,-1.28 -3.648,0 -6.4,1.472 -2.752,1.408 -4.608,3.776 -1.792,2.368 -2.752,5.504 -0.896,3.072 -0.896,6.4 0,3.456 0.896,6.656 0.96,3.2 2.752,5.696 1.856,2.432 4.672,3.904 2.816,1.408 6.528,1.408 3.264,0 5.824,-1.152 2.624,-1.216 4.224,-3.904 z"
       id="path101" /><path
       style="fill:#ffffff;stroke:#ffffff"
       d="m 214.17,513.97 q 0,-1.984 0.384,-3.904 0.384,-1.92 1.28,-3.392 0.96,-1.472 2.496,-2.368 1.536,-0.96 3.84,-0.96 2.304,0 3.84,0.96 1.6,0.896 2.496,2.368 0.96,1.472 1.344,3.392 0.384,1.92 0.384,3.904 0,1.984 -0.384,3.904 -0.384,1.856 -1.344,3.392 -0.896,1.472 -2.496,2.368 -1.536,0.896 -3.84,0.896 -2.304,0 -3.84,-0.896 -1.536,-0.896 -2.496,-2.368 -0.896,-1.536 -1.28,-3.392 -0.384,-1.92 -0.384,-3.904 z m -9.088,0 q 0,3.968 1.216,7.168 1.216,3.2 3.456,5.504 2.24,2.24 5.376,3.456 3.136,1.216 7.04,1.216 3.904,0 7.04,-1.216 3.2,-1.216 5.44,-3.456 2.24,-2.304 3.456,-5.504 1.216,-3.2 1.216,-7.168 0,-3.968 -1.216,-7.168 -1.216,-3.264 -3.456,-5.504 -2.24,-2.304 -5.44,-3.52 -3.136,-1.28 -7.04,-1.28 -3.904,0 -7.04,1.28 -3.136,1.216 -5.376,3.52 -2.24,2.24 -3.456,5.504 -1.216,3.2 -1.216,7.168 z"
       id="path103" /><path
       style="fill:#ffffff;stroke:#ffffff"
       d="m 245.49,497.4 v 33.088 h 9.088 v -19.2 q 0,-2.432 0.704,-3.904 0.704,-1.536 1.664,-2.304 1.024,-0.832 2.048,-1.088 1.088,-0.32 1.728,-0.32 2.176,0 3.264,0.768 1.152,0.704 1.6,1.92 0.512,1.216 0.576,2.688 0.064,1.408 0.064,2.88 v 18.56 h 9.088 v -18.432 q 0,-1.536 0.192,-3.008 0.256,-1.536 0.896,-2.688 0.704,-1.216 1.856,-1.92 1.216,-0.768 3.136,-0.768 1.92,0 3.008,0.64 1.152,0.64 1.728,1.728 0.576,1.088 0.704,2.56 0.128,1.472 0.128,3.136 v 18.752 h 9.088 v -22.144 q 0,-3.2 -0.896,-5.44 -0.896,-2.304 -2.496,-3.712 -1.6,-1.408 -3.84,-2.048 -2.24,-0.64 -4.864,-0.64 -3.456,0 -6.016,1.664 -2.496,1.664 -3.968,3.84 -1.344,-3.072 -3.968,-4.288 -2.56,-1.216 -5.696,-1.216 -3.264,0 -5.824,1.408 -2.496,1.408 -4.288,3.968 h -0.128 v -4.48 z"
       id="path105" /><path
       style="fill:#ffffff;stroke:#ffffff"
       d="m 328.79,515.32 h -9.728 q -0.064,4.224 1.536,7.296 1.6,3.072 4.288,5.056 2.752,1.984 6.272,2.88 3.584,0.96 7.36,0.96 4.672,0 8.192,-1.088 3.584,-1.088 5.952,-3.008 2.432,-1.984 3.648,-4.672 1.216,-2.688 1.216,-5.824 0,-3.84 -1.664,-6.272 -1.6,-2.496 -3.84,-3.968 -2.24,-1.472 -4.544,-2.112 -2.24,-0.704 -3.52,-0.96 -4.288,-1.088 -6.976,-1.792 -2.624,-0.704 -4.16,-1.408 -1.472,-0.704 -1.984,-1.536 -0.512,-0.832 -0.512,-2.176 0,-1.472 0.64,-2.432 0.64,-0.96 1.6,-1.6 1.024,-0.64 2.24,-0.896 1.216,-0.256 2.432,-0.256 1.856,0 3.392,0.32 1.6,0.32 2.816,1.088 1.216,0.768 1.92,2.112 0.768,1.344 0.896,3.392 h 9.728 q 0,-3.968 -1.536,-6.72 -1.472,-2.816 -4.032,-4.608 -2.56,-1.792 -5.888,-2.56 -3.264,-0.832 -6.848,-0.832 -3.072,0 -6.144,0.832 -3.072,0.832 -5.504,2.56 -2.432,1.728 -3.968,4.352 -1.472,2.56 -1.472,6.08 0,3.136 1.152,5.376 1.216,2.176 3.136,3.648 1.92,1.472 4.352,2.432 2.432,0.896 4.992,1.536 2.496,0.704 4.928,1.28 2.432,0.576 4.352,1.344 1.92,0.768 3.072,1.92 1.216,1.152 1.216,3.008 0,1.728 -0.896,2.88 -0.896,1.088 -2.24,1.728 -1.344,0.64 -2.88,0.896 -1.536,0.192 -2.88,0.192 -1.984,0 -3.84,-0.448 -1.856,-0.512 -3.264,-1.472 -1.344,-1.024 -2.176,-2.624 -0.832,-1.6 -0.832,-3.904 z"
       id="path107" /><path
       style="fill:#ffffff;stroke:#ffffff"
       d="m 385.01,509.04 h 8.896 q -0.192,-3.2 -1.536,-5.504 -1.344,-2.368 -3.52,-3.904 -2.112,-1.6 -4.864,-2.368 -2.688,-0.768 -5.632,-0.768 -4.032,0 -7.168,1.344 -3.136,1.344 -5.312,3.776 -2.176,2.368 -3.328,5.696 -1.088,3.264 -1.088,7.104 0,3.712 1.216,6.848 1.216,3.072 3.392,5.312 2.176,2.24 5.248,3.52 3.136,1.216 6.848,1.216 6.592,0 10.816,-3.456 4.224,-3.456 5.12,-10.048 h -8.768 q -0.448,3.072 -2.24,4.928 -1.728,1.792 -4.992,1.792 -2.112,0 -3.584,-0.96 -1.472,-0.96 -2.368,-2.432 -0.832,-1.536 -1.216,-3.392 -0.384,-1.856 -0.384,-3.648 0,-1.856 0.384,-3.712 0.384,-1.92 1.28,-3.456 0.96,-1.6 2.432,-2.56 1.472,-1.024 3.648,-1.024 5.824,0 6.72,5.696 z"
       id="path109" /><path
       style="fill:#ffffff;stroke:#ffffff"
       d="m 399.23,497.4 v 33.088 h 9.088 v -14.912 q 0,-2.24 0.448,-4.16 0.448,-1.92 1.472,-3.328 1.088,-1.472 2.816,-2.304 1.728,-0.832 4.224,-0.832 0.832,0 1.728,0.128 0.896,0.064 1.536,0.192 v -8.448 q -1.088,-0.32 -1.984,-0.32 -1.728,0 -3.328,0.512 -1.6,0.512 -3.008,1.472 -1.408,0.896 -2.496,2.24 -1.088,1.28 -1.728,2.816 H 407.87 V 497.4 Z"
       id="path111" /><path
       style="fill:#ffffff;stroke:#ffffff"
       d="m 430.97,513.97 q 0,-1.984 0.384,-3.904 0.384,-1.92 1.28,-3.392 0.96,-1.472 2.496,-2.368 1.536,-0.96 3.84,-0.96 2.304,0 3.84,0.96 1.6,0.896 2.496,2.368 0.96,1.472 1.344,3.392 0.384,1.92 0.384,3.904 0,1.984 -0.384,3.904 -0.384,1.856 -1.344,3.392 -0.896,1.472 -2.496,2.368 -1.536,0.896 -3.84,0.896 -2.304,0 -3.84,-0.896 -1.536,-0.896 -2.496,-2.368 -0.896,-1.536 -1.28,-3.392 -0.384,-1.92 -0.384,-3.904 z m -9.088,0 q 0,3.968 1.216,7.168 1.216,3.2 3.456,5.504 2.24,2.24 5.376,3.456 3.136,1.216 7.04,1.216 3.904,0 7.04,-1.216 3.2,-1.216 5.44,-3.456 2.24,-2.304 3.456,-5.504 1.216,-3.2 1.216,-7.168 0,-3.968 -1.216,-7.168 -1.216,-3.264 -3.456,-5.504 -2.24,-2.304 -5.44,-3.52 -3.136,-1.28 -7.04,-1.28 -3.904,0 -7.04,1.28 -3.136,1.216 -5.376,3.52 -2.24,2.24 -3.456,5.504 -1.216,3.2 -1.216,7.168 z"
       id="path113" /><path
       style="fill:#ffffff;stroke:#ffffff"
       d="m 462.24,484.79 v 45.696 h 9.088 V 484.79 Z"
       id="path115" /><path
       style="fill:#ffffff;stroke:#ffffff"
       d="m 478.74,484.79 v 45.696 h 9.088 V 484.79 Z"
       id="path117" /></g></g><g
   style="fill:#ffffff;stroke:#ffffff"
   transform="matrix(0.225426,0,0,0.190692,75.476245,0.09543582)"
   id="g149">
	
		<path
   style="fill:#ffffff;stroke:#ffffff"
   d="m 116,292 c -16.542,0 -30,13.458 -30,30 0,16.542 13.458,30 30,30 16.542,0 30,-13.458 30,-30 0,-16.542 -13.458,-30 -30,-30 z m 0,39.999 c -5.514,0 -10,-4.486 -10,-10 0,-5.514 4.486,-10 10,-10 5.514,0 10,4.486 10,10 0,5.514 -4.486,10 -10,10 z"
   id="path123" />
	

	
		<path
   style="fill:#ffffff;stroke:#ffffff"
   d="m 116,412 c -16.542,0 -30,13.458 -30,30 0,16.542 13.458,30 30,30 16.542,0 30,-13.458 30,-30 0,-16.542 -13.458,-30 -30,-30 z m 0,39.999 c -5.514,0 -10,-4.486 -10,-10 0,-5.514 4.486,-10 10,-10 5.514,0 10,4.486 10,10 0,5.514 -4.486,10 -10,10 z"
   id="path125" />
	

	
		<path
   style="fill:#ffffff;stroke:#ffffff"
   d="m 236,292 c -16.542,0 -30,13.458 -30,30 0,16.542 13.458,30 30,30 16.542,0 30,-13.458 30,-30 0,-16.542 -13.458,-30 -30,-30 z m 0,39.999 c -5.514,0 -10,-4.486 -10,-10 0,-5.514 4.486,-10 10,-10 5.514,0 10,4.486 10,10 0,5.514 -4.486,10 -10,10 z"
   id="path127" />
	

		<path
   style="fill:#ffffff;stroke:#ffffff"
   d="M 477.21,150.21 335.79,8.79 C 324.069,-2.933 305.094,-2.937 293.368,8.789 l -141.41,141.42 c -11.73,11.714 -11.746,30.7 -0.005,42.425 l 59.363,59.37 H 76.006 c -16.542,0 -30,13.458 -30,30 v 200 c 0,16.542 13.458,30 30,30 h 200 c 16.542,0 30,-13.458 30,-30 v -140.4 c 10.251,3.046 21.737,0.514 29.791,-7.55 l 141.42,-141.42 c 11.723,-11.721 11.727,-30.695 0.001,-42.421 z M 286,482 c 0,5.514 -4.486,10 -10,10 H 76 c -5.514,0 -10,-4.486 -10,-10 V 282 c 0,-5.514 4.486,-10 10,-10 h 159.45 0.005 40.548 c 5.514,0 10,4.486 10,10 z M 463.07,178.49 321.65,319.91 c -3.897,3.902 -10.21,3.923 -14.141,-0.013 l -1.504,-1.5 v -36.401 c 0,-16.542 -13.458,-30 -30,-30 h -36.407 l -73.505,-73.515 c -3.907,-3.903 -3.915,-10.219 0.005,-14.133 l 141.42,-141.42 c 3.904,-3.904 10.228,-3.909 14.137,10e-4 l 141.42,141.42 c 3.903,3.904 3.908,10.228 -0.003,14.135 z"
   id="path129" />
	<path
   style="fill:#ffffff;stroke:#ffffff"
   d="M 477.21,150.21 335.79,8.79 C 324.069,-2.933 305.094,-2.937 293.368,8.789 l -141.41,141.42 c -11.73,11.714 -11.746,30.7 -0.005,42.425 l 59.363,59.37 H 76.006 c -16.542,0 -30,13.458 -30,30 v 200 c 0,16.542 13.458,30 30,30 h 200 c 16.542,0 30,-13.458 30,-30 v -140.4 c 10.251,3.046 21.737,0.514 29.791,-7.55 l 141.42,-141.42 c 11.723,-11.721 11.727,-30.695 0.001,-42.421 z M 286,482 c 0,5.514 -4.486,10 -10,10 H 76 c -5.514,0 -10,-4.486 -10,-10 V 282 c 0,-5.514 4.486,-10 10,-10 h 159.45 0.005 40.548 c 5.514,0 10,4.486 10,10 z M 463.07,178.49 321.65,319.91 c -3.897,3.902 -10.21,3.923 -14.141,-0.013 l -1.504,-1.5 v -36.401 c 0,-16.542 -13.458,-30 -30,-30 h -36.407 l -73.505,-73.515 c -3.907,-3.903 -3.915,-10.219 0.005,-14.133 l 141.42,-141.42 c 3.904,-3.904 10.228,-3.909 14.137,10e-4 l 141.42,141.42 c 3.903,3.904 3.908,10.228 -0.003,14.135 z"
   id="path131" />
	
		<path
   style="fill:#ffffff;stroke:#ffffff"
   d="m 250.94,150.21 c -11.726,-11.724 -30.707,-11.727 -42.432,0 -11.722,11.72 -11.728,30.696 -0.001,42.421 11.725,11.727 30.706,11.726 42.433,0.001 11.695,-11.697 11.695,-30.726 0,-42.422 z m -14.143,28.278 c -3.908,3.908 -10.238,3.91 -14.148,0 -3.905,-3.905 -3.909,-10.227 0.001,-14.138 3.909,-3.909 10.239,-3.907 14.147,0.001 3.897,3.899 3.897,10.241 0,14.137 z"
   id="path133" />
	

	
		<path
   style="fill:#ffffff;stroke:#ffffff"
   d="m 335.79,150.21 c -11.723,-11.725 -30.696,-11.728 -42.421,-0.001 -11.725,11.723 -11.728,30.696 -0.001,42.421 11.723,11.725 30.696,11.728 42.421,0.001 l 0.001,-0.001 c 11.725,-11.724 11.725,-30.697 0,-42.42 z m -14.141,28.277 c -3.908,3.908 -10.228,3.91 -14.139,0 -3.907,-3.907 -3.909,-10.227 0.001,-14.138 3.907,-3.907 10.227,-3.909 14.138,0.001 3.907,3.909 3.909,10.23 0,14.137 z"
   id="path135" />
	

	
		<path
   style="fill:#ffffff;stroke:#ffffff"
   d="m 420.64,150.21 c -11.727,-11.724 -30.697,-11.726 -42.423,0 -11.695,11.696 -11.695,30.726 0,42.421 11.725,11.727 30.696,11.726 42.423,0.001 11.695,-11.697 11.695,-30.726 0,-42.422 z m -14.143,28.278 c -3.908,3.908 -10.229,3.91 -14.138,0 -3.897,-3.897 -3.897,-10.239 0,-14.138 3.909,-3.909 10.229,-3.907 14.138,0.001 3.897,3.899 3.897,10.241 0,14.137 z"
   id="path137" />
	

	
		<path
   style="fill:#ffffff;stroke:#ffffff"
   d="m 236,412 c -16.542,0 -30,13.458 -30,30 0,16.542 13.458,30 30,30 16.542,0 30,-13.458 30,-30 0,-16.542 -13.458,-30 -30,-30 z m 0,39.999 c -5.514,0 -10,-4.486 -10,-10 0,-5.514 4.486,-10 10,-10 5.514,0 10,4.486 10,10 0,5.514 -4.486,10 -10,10 z"
   id="path139" />
	

	
		<path
   style="fill:#ffffff;stroke:#ffffff"
   d="m 436,326 c -5.522,0 -10,4.478 -10,10 0,49.626 -40.374,89.999 -89.999,89.999 -5.522,0 -10,4.478 -10,10 0,5.522 4.478,10 10,10 60.654,0 110,-49.346 110,-110 0,-5.523 -4.478,-10 -10,-10 z"
   id="path141" />
	

	
		<path
   style="fill:#ffffff;stroke:#ffffff"
   d="m 396,326 c -5.522,0 -10,4.478 -10,10 0,27.57 -22.43,50 -50,50 -5.522,0 -10,4.478 -10,10 0,5.522 4.478,10 10,10 38.598,0 69.999,-31.402 69.999,-69.999 C 406,330.478 401.522,326 396,326 Z"
   id="path143" />
	

	
		<path
   style="fill:#ffffff;stroke:#ffffff"
   d="m 136,40.004 c -60.654,0 -110,49.345 -110,110 0,5.522 4.478,10 10,10 5.522,0 10,-4.478 10,-10 0,-49.626 40.374,-89.999 89.999,-89.999 5.522,0 10,-4.478 10,-10 0,-5.522 -4.478,-10 -10,-10 z"
   id="path145" />
	

	
		<path
   style="fill:#ffffff;stroke:#ffffff"
   d="m 136,80.003 c -38.598,0 -69.999,31.402 -69.999,69.999 0,5.522 4.478,10 10,10 5.522,0 10,-4.478 10,-10 0,-27.57 22.43,-50 50,-50 5.522,0 10,-4.478 10,-10 0,-5.522 -4.479,-9.999 -10.001,-9.999 z"
   id="path147" />
	
</g></svg>
