<?xml version="1.0" encoding="UTF-8"?>
<svg width="175.72" height="189.23" version="1.1" viewBox="0 0 175.72 189.23" xml:space="preserve" xmlns="http://www.w3.org/2000/svg" xmlns:cc="http://creativecommons.org/ns#" xmlns:dc="http://purl.org/dc/elements/1.1/" xmlns:rdf="http://www.w3.org/1999/02/22-rdf-syntax-ns#"><metadata><rdf:RDF><cc:Work rdf:about=""><dc:format>image/svg+xml</dc:format><dc:type rdf:resource="http://purl.org/dc/dcmitype/StillImage"/><dc:title/></cc:Work></rdf:RDF></metadata>
















<text transform="translate(-162.75 -6.8629)" font-family="Trattatello" font-size="40px" style="line-height:1.25;shape-inside:url(#rect876);white-space:pre" xml:space="preserve"/><g transform="translate(-162.75 -6.8629)"><g transform="matrix(.28623 0 0 .52792 148.84 -10.513)" stroke-width="1.6479" aria-label="Scroll to top"><g transform="scale(1.3581 .73633)" aria-label="Random Scroll"><path d="m56.992 505.46v-12.864h11.008q3.456 0 5.184 1.536 1.728 1.472 1.728 4.8 0 3.456-1.728 4.992t-5.184 1.536zm-10.048-20.672v45.696h10.048v-17.856h10.048q3.776 0 5.44 1.664t2.176 5.248q0.384 2.752 0.576 5.76t1.024 5.184h10.048q-0.704-0.96-1.088-2.304-0.32-1.408-0.512-2.944-0.128-1.536-0.192-3.008t-0.128-2.56q-0.128-1.728-0.512-3.456-0.32-1.728-1.088-3.136-0.768-1.472-1.984-2.496-1.216-1.088-3.072-1.6v-0.128q3.84-1.536 5.504-4.48 1.728-2.944 1.728-6.976 0-2.624-0.96-4.864-0.896-2.304-2.688-4.032-1.728-1.728-4.224-2.688-2.432-1.024-5.504-1.024z"/><path d="m91.85 507.57q0.192-3.2 1.6-5.312t3.584-3.392 4.864-1.792q2.752-0.576 5.504-0.576 2.496 0 5.056 0.384 2.56 0.32 4.672 1.344t3.456 2.88q1.344 1.792 1.344 4.8v17.216q0 2.24 0.256 4.288t0.896 3.072h-9.216q-0.256-0.768-0.448-1.536-0.128-0.832-0.192-1.664-2.176 2.24-5.12 3.136t-6.016 0.896q-2.368 0-4.416-0.576t-3.584-1.792-2.432-3.072q-0.832-1.856-0.832-4.416 0-2.816 0.96-4.608 1.024-1.856 2.56-2.944 1.6-1.088 3.584-1.6 2.048-0.576 4.096-0.896 2.048-0.32 4.032-0.512t3.52-0.576 2.432-1.088q0.896-0.768 0.832-2.176 0-1.472-0.512-2.304-0.448-0.896-1.28-1.344-0.768-0.512-1.856-0.64-1.024-0.192-2.24-0.192-2.688 0-4.224 1.152t-1.792 3.84zm20.992 6.72q-0.576 0.512-1.472 0.832-0.832 0.256-1.856 0.448-0.96 0.192-2.048 0.32t-2.176 0.32q-1.024 0.192-2.048 0.512-0.96 0.32-1.728 0.896-0.704 0.512-1.152 1.344-0.448 0.832-0.448 2.112 0 1.216 0.448 2.048 0.448 0.832 1.216 1.344 0.768 0.448 1.792 0.64t2.112 0.192q2.688 0 4.16-0.896t2.176-2.112q0.704-1.28 0.832-2.56 0.192-1.28 0.192-2.048z"/><path d="m128.98 497.4v33.088h9.088v-17.344q0-5.056 1.664-7.232 1.664-2.24 5.376-2.24 3.264 0 4.544 2.048 1.28 1.984 1.28 6.08v18.688h9.088v-20.352q0-3.072-0.576-5.568-0.512-2.56-1.856-4.288-1.344-1.792-3.712-2.752-2.304-1.024-5.952-1.024-2.88 0-5.632 1.344-2.752 1.28-4.48 4.16h-0.192v-4.608z"/><path d="m190.47 513.84q0 2.048-0.384 3.968t-1.28 3.456q-0.896 1.472-2.432 2.368-1.472 0.896-3.712 0.896-2.112 0-3.648-0.896-1.472-0.96-2.496-2.432-0.96-1.536-1.408-3.456t-0.448-3.84q0-2.048 0.384-3.904 0.448-1.92 1.344-3.392 0.96-1.472 2.496-2.368t3.776-0.896 3.712 0.896 2.368 2.368q0.96 1.408 1.344 3.328 0.384 1.856 0.384 3.904zm0.128 12.416v4.224h8.64v-45.696h-9.088v16.64h-0.128q-1.536-2.432-4.224-3.648-2.624-1.28-5.568-1.28-3.648 0-6.4 1.472-2.752 1.408-4.608 3.776-1.792 2.368-2.752 5.504-0.896 3.072-0.896 6.4 0 3.456 0.896 6.656 0.96 3.2 2.752 5.696 1.856 2.432 4.672 3.904 2.816 1.408 6.528 1.408 3.264 0 5.824-1.152 2.624-1.216 4.224-3.904z"/><path d="m214.17 513.97q0-1.984 0.384-3.904t1.28-3.392q0.96-1.472 2.496-2.368 1.536-0.96 3.84-0.96t3.84 0.96q1.6 0.896 2.496 2.368 0.96 1.472 1.344 3.392t0.384 3.904-0.384 3.904q-0.384 1.856-1.344 3.392-0.896 1.472-2.496 2.368-1.536 0.896-3.84 0.896t-3.84-0.896-2.496-2.368q-0.896-1.536-1.28-3.392-0.384-1.92-0.384-3.904zm-9.088 0q0 3.968 1.216 7.168t3.456 5.504q2.24 2.24 5.376 3.456t7.04 1.216 7.04-1.216q3.2-1.216 5.44-3.456 2.24-2.304 3.456-5.504t1.216-7.168-1.216-7.168q-1.216-3.264-3.456-5.504-2.24-2.304-5.44-3.52-3.136-1.28-7.04-1.28t-7.04 1.28q-3.136 1.216-5.376 3.52-2.24 2.24-3.456 5.504-1.216 3.2-1.216 7.168z"/><path d="m245.49 497.4v33.088h9.088v-19.2q0-2.432 0.704-3.904 0.704-1.536 1.664-2.304 1.024-0.832 2.048-1.088 1.088-0.32 1.728-0.32 2.176 0 3.264 0.768 1.152 0.704 1.6 1.92 0.512 1.216 0.576 2.688 0.064 1.408 0.064 2.88v18.56h9.088v-18.432q0-1.536 0.192-3.008 0.256-1.536 0.896-2.688 0.704-1.216 1.856-1.92 1.216-0.768 3.136-0.768t3.008 0.64q1.152 0.64 1.728 1.728t0.704 2.56 0.128 3.136v18.752h9.088v-22.144q0-3.2-0.896-5.44-0.896-2.304-2.496-3.712t-3.84-2.048-4.864-0.64q-3.456 0-6.016 1.664-2.496 1.664-3.968 3.84-1.344-3.072-3.968-4.288-2.56-1.216-5.696-1.216-3.264 0-5.824 1.408-2.496 1.408-4.288 3.968h-0.128v-4.48z"/><path d="m328.79 515.32h-9.728q-0.064 4.224 1.536 7.296t4.288 5.056q2.752 1.984 6.272 2.88 3.584 0.96 7.36 0.96 4.672 0 8.192-1.088 3.584-1.088 5.952-3.008 2.432-1.984 3.648-4.672t1.216-5.824q0-3.84-1.664-6.272-1.6-2.496-3.84-3.968t-4.544-2.112q-2.24-0.704-3.52-0.96-4.288-1.088-6.976-1.792-2.624-0.704-4.16-1.408-1.472-0.704-1.984-1.536t-0.512-2.176q0-1.472 0.64-2.432t1.6-1.6q1.024-0.64 2.24-0.896t2.432-0.256q1.856 0 3.392 0.32 1.6 0.32 2.816 1.088t1.92 2.112q0.768 1.344 0.896 3.392h9.728q0-3.968-1.536-6.72-1.472-2.816-4.032-4.608t-5.888-2.56q-3.264-0.832-6.848-0.832-3.072 0-6.144 0.832t-5.504 2.56-3.968 4.352q-1.472 2.56-1.472 6.08 0 3.136 1.152 5.376 1.216 2.176 3.136 3.648t4.352 2.432q2.432 0.896 4.992 1.536 2.496 0.704 4.928 1.28t4.352 1.344 3.072 1.92q1.216 1.152 1.216 3.008 0 1.728-0.896 2.88-0.896 1.088-2.24 1.728t-2.88 0.896q-1.536 0.192-2.88 0.192-1.984 0-3.84-0.448-1.856-0.512-3.264-1.472-1.344-1.024-2.176-2.624t-0.832-3.904z"/><path d="m385.01 509.04h8.896q-0.192-3.2-1.536-5.504-1.344-2.368-3.52-3.904-2.112-1.6-4.864-2.368-2.688-0.768-5.632-0.768-4.032 0-7.168 1.344t-5.312 3.776q-2.176 2.368-3.328 5.696-1.088 3.264-1.088 7.104 0 3.712 1.216 6.848 1.216 3.072 3.392 5.312t5.248 3.52q3.136 1.216 6.848 1.216 6.592 0 10.816-3.456t5.12-10.048h-8.768q-0.448 3.072-2.24 4.928-1.728 1.792-4.992 1.792-2.112 0-3.584-0.96t-2.368-2.432q-0.832-1.536-1.216-3.392t-0.384-3.648q0-1.856 0.384-3.712 0.384-1.92 1.28-3.456 0.96-1.6 2.432-2.56 1.472-1.024 3.648-1.024 5.824 0 6.72 5.696z"/><path d="m399.23 497.4v33.088h9.088v-14.912q0-2.24 0.448-4.16t1.472-3.328q1.088-1.472 2.816-2.304t4.224-0.832q0.832 0 1.728 0.128 0.896 0.064 1.536 0.192v-8.448q-1.088-0.32-1.984-0.32-1.728 0-3.328 0.512t-3.008 1.472q-1.408 0.896-2.496 2.24-1.088 1.28-1.728 2.816h-0.128v-6.144z"/><path d="m430.97 513.97q0-1.984 0.384-3.904t1.28-3.392q0.96-1.472 2.496-2.368 1.536-0.96 3.84-0.96t3.84 0.96q1.6 0.896 2.496 2.368 0.96 1.472 1.344 3.392t0.384 3.904-0.384 3.904q-0.384 1.856-1.344 3.392-0.896 1.472-2.496 2.368-1.536 0.896-3.84 0.896t-3.84-0.896-2.496-2.368q-0.896-1.536-1.28-3.392-0.384-1.92-0.384-3.904zm-9.088 0q0 3.968 1.216 7.168t3.456 5.504q2.24 2.24 5.376 3.456t7.04 1.216 7.04-1.216q3.2-1.216 5.44-3.456 2.24-2.304 3.456-5.504t1.216-7.168-1.216-7.168q-1.216-3.264-3.456-5.504-2.24-2.304-5.44-3.52-3.136-1.28-7.04-1.28t-7.04 1.28q-3.136 1.216-5.376 3.52-2.24 2.24-3.456 5.504-1.216 3.2-1.216 7.168z"/><path d="m462.24 484.79v45.696h9.088v-45.696z"/><path d="m478.74 484.79v45.696h9.088v-45.696z"/></g></g><g transform="matrix(.37571 0 0 .31782 152.98 6.8628)">
	
		<path d="m116 292c-16.542 0-30 13.458-30 30s13.458 30 30 30 30-13.458 30-30-13.458-30-30-30zm0 39.999c-5.514 0-10-4.486-10-10s4.486-10 10-10 10 4.486 10 10-4.486 10-10 10z"/>
	

	
		<path d="m116 412c-16.542 0-30 13.458-30 30s13.458 30 30 30 30-13.458 30-30-13.458-30-30-30zm0 39.999c-5.514 0-10-4.486-10-10s4.486-10 10-10 10 4.486 10 10-4.486 10-10 10z"/>
	

	
		<path d="m236 292c-16.542 0-30 13.458-30 30s13.458 30 30 30 30-13.458 30-30-13.458-30-30-30zm0 39.999c-5.514 0-10-4.486-10-10s4.486-10 10-10 10 4.486 10 10-4.486 10-10 10z"/>
	

		<path d="m477.21 150.21-141.42-141.42c-11.721-11.723-30.696-11.727-42.422-1e-3l-141.41 141.42c-11.73 11.714-11.746 30.7-5e-3 42.425l59.363 59.37h-135.31c-16.542 0-30 13.458-30 30v200c0 16.542 13.458 30 30 30h200c16.542 0 30-13.458 30-30v-140.4c10.251 3.046 21.737 0.514 29.791-7.55l141.42-141.42c11.723-11.721 11.727-30.695 1e-3 -42.421zm-191.21 331.79c0 5.514-4.486 10-10 10h-200c-5.514 0-10-4.486-10-10v-200c0-5.514 4.486-10 10-10h159.45 5e-3 40.548c5.514 0 10 4.486 10 10zm177.07-303.51-141.42 141.42c-3.897 3.902-10.21 3.923-14.141-0.013l-1.504-1.5v-36.401c0-16.542-13.458-30-30-30h-36.407l-73.505-73.515c-3.907-3.903-3.915-10.219 5e-3 -14.133l141.42-141.42c3.904-3.904 10.228-3.909 14.137 1e-3l141.42 141.42c3.903 3.904 3.908 10.228-3e-3 14.135z"/>
	<path d="m477.21 150.21-141.42-141.42c-11.721-11.723-30.696-11.727-42.422-1e-3l-141.41 141.42c-11.73 11.714-11.746 30.7-5e-3 42.425l59.363 59.37h-135.31c-16.542 0-30 13.458-30 30v200c0 16.542 13.458 30 30 30h200c16.542 0 30-13.458 30-30v-140.4c10.251 3.046 21.737 0.514 29.791-7.55l141.42-141.42c11.723-11.721 11.727-30.695 1e-3 -42.421zm-191.21 331.79c0 5.514-4.486 10-10 10h-200c-5.514 0-10-4.486-10-10v-200c0-5.514 4.486-10 10-10h159.45 5e-3 40.548c5.514 0 10 4.486 10 10zm177.07-303.51-141.42 141.42c-3.897 3.902-10.21 3.923-14.141-0.013l-1.504-1.5v-36.401c0-16.542-13.458-30-30-30h-36.407l-73.505-73.515c-3.907-3.903-3.915-10.219 5e-3 -14.133l141.42-141.42c3.904-3.904 10.228-3.909 14.137 1e-3l141.42 141.42c3.903 3.904 3.908 10.228-3e-3 14.135z"/>
	
		<path d="m250.94 150.21c-11.726-11.724-30.707-11.727-42.432 0-11.722 11.72-11.728 30.696-1e-3 42.421 11.725 11.727 30.706 11.726 42.433 1e-3 11.695-11.697 11.695-30.726 0-42.422zm-14.143 28.278c-3.908 3.908-10.238 3.91-14.148 0-3.905-3.905-3.909-10.227 1e-3 -14.138 3.909-3.909 10.239-3.907 14.147 1e-3 3.897 3.899 3.897 10.241 0 14.137z"/>
	

	
		<path d="m335.79 150.21c-11.723-11.725-30.696-11.728-42.421-1e-3 -11.725 11.723-11.728 30.696-1e-3 42.421 11.723 11.725 30.696 11.728 42.421 1e-3l1e-3 -1e-3c11.725-11.724 11.725-30.697 0-42.42zm-14.141 28.277c-3.908 3.908-10.228 3.91-14.139 0-3.907-3.907-3.909-10.227 1e-3 -14.138 3.907-3.907 10.227-3.909 14.138 1e-3 3.907 3.909 3.909 10.23 0 14.137z"/>
	

	
		<path d="m420.64 150.21c-11.727-11.724-30.697-11.726-42.423 0-11.695 11.696-11.695 30.726 0 42.421 11.725 11.727 30.696 11.726 42.423 1e-3 11.695-11.697 11.695-30.726 0-42.422zm-14.143 28.278c-3.908 3.908-10.229 3.91-14.138 0-3.897-3.897-3.897-10.239 0-14.138 3.909-3.909 10.229-3.907 14.138 1e-3 3.897 3.899 3.897 10.241 0 14.137z"/>
	

	
		<path d="m236 412c-16.542 0-30 13.458-30 30s13.458 30 30 30 30-13.458 30-30-13.458-30-30-30zm0 39.999c-5.514 0-10-4.486-10-10s4.486-10 10-10 10 4.486 10 10-4.486 10-10 10z"/>
	

	
		<path d="m436 326c-5.522 0-10 4.478-10 10 0 49.626-40.374 89.999-89.999 89.999-5.522 0-10 4.478-10 10s4.478 10 10 10c60.654 0 110-49.346 110-110 0-5.523-4.478-10-10-10z"/>
	

	
		<path d="m396 326c-5.522 0-10 4.478-10 10 0 27.57-22.43 50-50 50-5.522 0-10 4.478-10 10s4.478 10 10 10c38.598 0 69.999-31.402 69.999-69.999 1e-3 -5.523-4.477-10.001-9.999-10.001z"/>
	

	
		<path d="m136 40.004c-60.654 0-110 49.345-110 110 0 5.522 4.478 10 10 10s10-4.478 10-10c0-49.626 40.374-89.999 89.999-89.999 5.522 0 10-4.478 10-10s-4.478-10-10-10z"/>
	

	
		<path d="m136 80.003c-38.598 0-69.999 31.402-69.999 69.999 0 5.522 4.478 10 10 10s10-4.478 10-10c0-27.57 22.43-50 50-50 5.522 0 10-4.478 10-10s-4.479-9.999-10.001-9.999z"/>
	
</g></g></svg>
