<svg width="700" height="466" viewBox="0 0 647 466" fill="none" opacity="0.4" xmlns="http://www.w3.org/2000/svg">
<rect width="348" height="466" rx="52" fill="#C4C4C4"/>
<path d="M642.839 241.839C647.72 236.957 647.72 229.043 642.839 224.161L563.289 144.612C558.408 139.73 550.493 139.73 545.612 144.612C540.73 149.493 540.73 157.408 545.612 162.289L616.322 233L545.612 303.711C540.73 308.592 540.73 316.507 545.612 321.388C550.493 326.27 558.408 326.27 563.289 321.388L642.839 241.839ZM424 245.5H634V220.5H424V245.5Z" fill="#C4C4C4"/>
<line x1="48" y1="109.5" x2="300" y2="109.5" stroke="#9C9C9C" stroke-width="9"/>
<line x1="48" y1="156.5" x2="300" y2="156.5" stroke="#9C9C9C" stroke-width="9"/>
<line x1="48" y1="203.5" x2="300" y2="203.5" stroke="#9C9C9C" stroke-width="9"/>
<line x1="48" y1="250.5" x2="300" y2="250.5" stroke="#9C9C9C" stroke-width="9"/>
<line x1="48" y1="297.5" x2="300" y2="297.5" stroke="#9C9C9C" stroke-width="9"/>
<line x1="48" y1="344.5" x2="300" y2="344.5" stroke="#9C9C9C" stroke-width="9"/>
<line x1="48" y1="391.5" x2="300" y2="391.5" stroke="#9C9C9C" stroke-width="9"/>
</svg>