<?xml version="1.0" encoding="UTF-8"?>
<svg width="146.92" height="185.92" version="1.1" viewBox="0 0 146.92 185.92" xml:space="preserve" xmlns="http://www.w3.org/2000/svg" xmlns:cc="http://creativecommons.org/ns#" xmlns:dc="http://purl.org/dc/elements/1.1/" xmlns:rdf="http://www.w3.org/1999/02/22-rdf-syntax-ns#"><metadata><rdf:RDF><cc:Work rdf:about=""><dc:format>image/svg+xml</dc:format><dc:type rdf:resource="http://purl.org/dc/dcmitype/StillImage"/><dc:title/></cc:Work></rdf:RDF></metadata>
















<text transform="translate(40.048 -12.99)" font-family="Trattatello" font-size="40px" style="line-height:1.25;shape-inside:url(#rect876);white-space:pre" xml:space="preserve"/><g transform="translate(40.048 -12.99)"><g fill="none" stroke="#000" stroke-linecap="round"><path d="m-30.691 152.46v10.109" stroke-width="11.85"/><path d="m-30.691 102.37v29.937" stroke-width="12.493"/><path d="m-30.691 19.353v62.104" stroke-width="12.726"/><path d="m97.516 152.46v10.109" stroke-width="11.85"/><path d="m97.516 102.37v29.937" stroke-width="12.493"/><path d="m97.516 19.353v62.104" stroke-width="12.726"/></g><g transform="matrix(.28623 0 0 .52792 -57.176 -11.803)" stroke-width="1.6479" aria-label="Scroll to top"><g transform="scale(1.3581 .73633)" aria-label="Scroll to Top"><path d="m53.792 515.32h-9.728q-0.064 4.224 1.536 7.296t4.288 5.056q2.752 1.984 6.272 2.88 3.584 0.96 7.36 0.96 4.672 0 8.192-1.088 3.584-1.088 5.952-3.008 2.432-1.984 3.648-4.672t1.216-5.824q0-3.84-1.664-6.272-1.6-2.496-3.84-3.968t-4.544-2.112q-2.24-0.704-3.52-0.96-4.288-1.088-6.976-1.792-2.624-0.704-4.16-1.408-1.472-0.704-1.984-1.536t-0.512-2.176q0-1.472 0.64-2.432t1.6-1.6q1.024-0.64 2.24-0.896t2.432-0.256q1.856 0 3.392 0.32 1.6 0.32 2.816 1.088t1.92 2.112q0.768 1.344 0.896 3.392h9.728q0-3.968-1.536-6.72-1.472-2.816-4.032-4.608t-5.888-2.56q-3.264-0.832-6.848-0.832-3.072 0-6.144 0.832t-5.504 2.56-3.968 4.352q-1.472 2.56-1.472 6.08 0 3.136 1.152 5.376 1.216 2.176 3.136 3.648t4.352 2.432q2.432 0.896 4.992 1.536 2.496 0.704 4.928 1.28t4.352 1.344 3.072 1.92q1.216 1.152 1.216 3.008 0 1.728-0.896 2.88-0.896 1.088-2.24 1.728t-2.88 0.896q-1.536 0.192-2.88 0.192-1.984 0-3.84-0.448-1.856-0.512-3.264-1.472-1.344-1.024-2.176-2.624t-0.832-3.904z"/><path d="m110.01 509.04h8.896q-0.192-3.2-1.536-5.504-1.344-2.368-3.52-3.904-2.112-1.6-4.864-2.368-2.688-0.768-5.632-0.768-4.032 0-7.168 1.344t-5.312 3.776q-2.176 2.368-3.328 5.696-1.088 3.264-1.088 7.104 0 3.712 1.216 6.848 1.216 3.072 3.392 5.312t5.248 3.52q3.136 1.216 6.848 1.216 6.592 0 10.816-3.456t5.12-10.048h-8.768q-0.448 3.072-2.24 4.928-1.728 1.792-4.992 1.792-2.112 0-3.584-0.96-1.472-0.96-2.368-2.432-0.832-1.536-1.216-3.392t-0.384-3.648q0-1.856 0.384-3.712 0.384-1.92 1.28-3.456 0.96-1.6 2.432-2.56 1.472-1.024 3.648-1.024 5.824 0 6.72 5.696z"/><path d="m124.23 497.4v33.088h9.088v-14.912q0-2.24 0.448-4.16t1.472-3.328q1.088-1.472 2.816-2.304t4.224-0.832q0.832 0 1.728 0.128 0.896 0.064 1.536 0.192v-8.448q-1.088-0.32-1.984-0.32-1.728 0-3.328 0.512t-3.008 1.472q-1.408 0.896-2.496 2.24-1.088 1.28-1.728 2.816h-0.128v-6.144z"/><path d="m155.97 513.97q0-1.984 0.384-3.904t1.28-3.392q0.96-1.472 2.496-2.368 1.536-0.96 3.84-0.96t3.84 0.96q1.6 0.896 2.496 2.368 0.96 1.472 1.344 3.392t0.384 3.904-0.384 3.904q-0.384 1.856-1.344 3.392-0.896 1.472-2.496 2.368-1.536 0.896-3.84 0.896t-3.84-0.896-2.496-2.368q-0.896-1.536-1.28-3.392-0.384-1.92-0.384-3.904zm-9.088 0q0 3.968 1.216 7.168t3.456 5.504q2.24 2.24 5.376 3.456t7.04 1.216 7.04-1.216q3.2-1.216 5.44-3.456 2.24-2.304 3.456-5.504t1.216-7.168-1.216-7.168q-1.216-3.264-3.456-5.504-2.24-2.304-5.44-3.52-3.136-1.28-7.04-1.28t-7.04 1.28q-3.136 1.216-5.376 3.52-2.24 2.24-3.456 5.504-1.216 3.2-1.216 7.168z"/><path d="m187.24 484.79v45.696h9.088v-45.696z"/><path d="m203.74 484.79v45.696h9.088v-45.696z"/><path d="m249.25 497.4v-9.92h-9.088v9.92h-5.504v6.08h5.504v19.52q0 2.496 0.832 4.032t2.24 2.368q1.472 0.832 3.328 1.088 1.92 0.32 4.032 0.32 1.344 0 2.752-0.064t2.56-0.256v-7.04q-0.64 0.128-1.344 0.192t-1.472 0.064q-2.304 0-3.072-0.768t-0.768-3.072v-16.384h6.656v-6.08z"/><path d="m268.3 513.97q0-1.984 0.384-3.904t1.28-3.392q0.96-1.472 2.496-2.368 1.536-0.96 3.84-0.96t3.84 0.96q1.6 0.896 2.496 2.368 0.96 1.472 1.344 3.392t0.384 3.904-0.384 3.904q-0.384 1.856-1.344 3.392-0.896 1.472-2.496 2.368-1.536 0.896-3.84 0.896t-3.84-0.896-2.496-2.368q-0.896-1.536-1.28-3.392-0.384-1.92-0.384-3.904zm-9.088 0q0 3.968 1.216 7.168t3.456 5.504q2.24 2.24 5.376 3.456t7.04 1.216 7.04-1.216q3.2-1.216 5.44-3.456 2.24-2.304 3.456-5.504t1.216-7.168-1.216-7.168q-1.216-3.264-3.456-5.504-2.24-2.304-5.44-3.52-3.136-1.28-7.04-1.28t-7.04 1.28q-3.136 1.216-5.376 3.52-2.24 2.24-3.456 5.504-1.216 3.2-1.216 7.168z"/><path d="m328.18 493.24v37.248h10.048v-37.248h13.696v-8.448h-37.44v8.448z"/><path d="m357.25 513.97q0-1.984 0.384-3.904t1.28-3.392q0.96-1.472 2.496-2.368 1.536-0.96 3.84-0.96t3.84 0.96q1.6 0.896 2.496 2.368 0.96 1.472 1.344 3.392t0.384 3.904-0.384 3.904q-0.384 1.856-1.344 3.392-0.896 1.472-2.496 2.368-1.536 0.896-3.84 0.896t-3.84-0.896-2.496-2.368q-0.896-1.536-1.28-3.392-0.384-1.92-0.384-3.904zm-9.088 0q0 3.968 1.216 7.168t3.456 5.504q2.24 2.24 5.376 3.456t7.04 1.216 7.04-1.216q3.2-1.216 5.44-3.456 2.24-2.304 3.456-5.504t1.216-7.168-1.216-7.168q-1.216-3.264-3.456-5.504-2.24-2.304-5.44-3.52-3.136-1.28-7.04-1.28t-7.04 1.28q-3.136 1.216-5.376 3.52-2.24 2.24-3.456 5.504-1.216 3.2-1.216 7.168z"/><path d="m405.06 524.53q-2.176 0-3.712-0.896t-2.496-2.304q-0.896-1.472-1.344-3.392-0.384-1.92-0.384-3.904 0-2.048 0.384-3.968t1.28-3.392q0.96-1.472 2.432-2.368 1.536-0.96 3.776-0.96 2.176 0 3.648 0.96 1.536 0.896 2.496 2.432 0.96 1.472 1.344 3.392 0.448 1.92 0.448 3.904t-0.384 3.904-1.344 3.392q-0.896 1.408-2.432 2.304-1.472 0.896-3.712 0.896zm-16.704-27.136v44.672h9.088v-15.68h0.128q1.664 2.432 4.224 3.712 2.624 1.216 5.696 1.216 3.648 0 6.336-1.408 2.752-1.408 4.544-3.776 1.856-2.368 2.752-5.44t0.896-6.4q0-3.52-0.896-6.72-0.896-3.264-2.752-5.696t-4.672-3.904-6.72-1.472q-3.072 0-5.632 1.216t-4.224 3.904h-0.128v-4.224z"/></g></g><g transform="matrix(.38872 0 0 .38872 -24.481 -22.557)" fill="none" stroke="#000" stroke-linecap="round"><path d="m257.8 272.1-83.501-84.045c-14.053-14.145-36.681-14.145-50.735 0l-83.501 84.045" stroke-width="29.001" style="paint-order:markers stroke fill"/><path d="m148.93 185.8v219.02" stroke-width="30.024"/></g></g></svg>
