<?xml version="1.0" encoding="UTF-8" standalone="no"?>
<svg
   xmlns:dc="http://purl.org/dc/elements/1.1/"
   xmlns:cc="http://creativecommons.org/ns#"
   xmlns:rdf="http://www.w3.org/1999/02/22-rdf-syntax-ns#"
   xmlns:svg="http://www.w3.org/2000/svg"
   xmlns="http://www.w3.org/2000/svg"
   xmlns:sodipodi="http://sodipodi.sourceforge.net/DTD/sodipodi-0.dtd"
   xmlns:inkscape="http://www.inkscape.org/namespaces/inkscape"
   inkscape:version="1.0 (4035a4f, 2020-05-01)"
   sodipodi:docname="scroll-to-top.svg"
   id="svg62"
   xml:space="preserve"
   viewBox="0 0 220.3851 150.49158"
   version="1.1"
   height="150.49158"
   width="220.3851"><defs
   id="defs66" /><sodipodi:namedview
   fit-margin-bottom="0"
   fit-margin-right="0"
   fit-margin-left="0"
   fit-margin-top="0"
   inkscape:current-layer="svg62"
   inkscape:window-maximized="1"
   inkscape:window-y="25"
   inkscape:window-x="0"
   inkscape:cy="65.213966"
   inkscape:cx="43.978792"
   inkscape:zoom="2.2950217"
   showgrid="false"
   id="namedview64"
   inkscape:window-height="936"
   inkscape:window-width="1680"
   inkscape:pageshadow="2"
   inkscape:pageopacity="0"
   guidetolerance="10"
   gridtolerance="10"
   objecttolerance="10"
   borderopacity="1"
   bordercolor="#666666"
   pagecolor="#000000" /><metadata
   id="metadata10"><rdf:RDF><cc:Work
       rdf:about=""><dc:format>image/svg+xml</dc:format><dc:type
         rdf:resource="http://purl.org/dc/dcmitype/StillImage" /><dc:title></dc:title></cc:Work></rdf:RDF></metadata>
















<text
   y="-44.090801"
   x="76.778854"
   id="text12"
   xml:space="preserve"
   style="line-height:1.25;white-space:pre;shape-inside:url(#rect876);"
   font-size="40px"
   font-family="Trattatello" /><g
   style="fill:none;stroke:#ffffff"
   transform="matrix(0.6,0,0,0.6,90.143854,-7.7940001)"
   fill="none"
   stroke="#000000"
   stroke-linecap="round"
   id="g26"><path
     style="fill:none;stroke:#ffffff"
     d="m -30.691,152.46 v 10.109"
     stroke-width="11.85"
     id="path14" /><path
     style="fill:none;stroke:#ffffff"
     d="m -30.691,102.37 v 29.937"
     stroke-width="12.493"
     id="path16" /><path
     style="fill:none;stroke:#ffffff"
     d="M -30.691,19.353 V 81.457"
     stroke-width="12.726"
     id="path18" /><path
     style="fill:none;stroke:#ffffff"
     d="m 97.516,152.46 v 10.109"
     stroke-width="11.85"
     id="path20" /><path
     style="fill:none;stroke:#ffffff"
     d="m 97.516,102.37 v 29.937"
     stroke-width="12.493"
     id="path22" /><path
     style="fill:none;stroke:#ffffff"
     d="M 97.516,19.353 V 81.457"
     stroke-width="12.726"
     id="path24" /></g><g
   style="fill:#ffffff;stroke:#ffffff"
   transform="matrix(0.429345,0,0,0.79188,-25.691994,-165.57898)"
   stroke-width="1.6479"
   aria-label="Scroll to top"
   id="g52"><g
     style="fill:#ffffff;stroke:#ffffff"
     transform="scale(1.3581,0.73633)"
     aria-label="Scroll to Top"
     id="g50"><path
       style="fill:#ffffff;stroke:#ffffff"
       d="m 53.792,515.32 h -9.728 q -0.064,4.224 1.536,7.296 1.6,3.072 4.288,5.056 2.752,1.984 6.272,2.88 3.584,0.96 7.36,0.96 4.672,0 8.192,-1.088 3.584,-1.088 5.952,-3.008 2.432,-1.984 3.648,-4.672 1.216,-2.688 1.216,-5.824 0,-3.84 -1.664,-6.272 -1.6,-2.496 -3.84,-3.968 -2.24,-1.472 -4.544,-2.112 -2.24,-0.704 -3.52,-0.96 -4.288,-1.088 -6.976,-1.792 -2.624,-0.704 -4.16,-1.408 -1.472,-0.704 -1.984,-1.536 -0.512,-0.832 -0.512,-2.176 0,-1.472 0.64,-2.432 0.64,-0.96 1.6,-1.6 1.024,-0.64 2.24,-0.896 1.216,-0.256 2.432,-0.256 1.856,0 3.392,0.32 1.6,0.32 2.816,1.088 1.216,0.768 1.92,2.112 0.768,1.344 0.896,3.392 h 9.728 q 0,-3.968 -1.536,-6.72 -1.472,-2.816 -4.032,-4.608 -2.56,-1.792 -5.888,-2.56 -3.264,-0.832 -6.848,-0.832 -3.072,0 -6.144,0.832 -3.072,0.832 -5.504,2.56 -2.432,1.728 -3.968,4.352 -1.472,2.56 -1.472,6.08 0,3.136 1.152,5.376 1.216,2.176 3.136,3.648 1.92,1.472 4.352,2.432 2.432,0.896 4.992,1.536 2.496,0.704 4.928,1.28 2.432,0.576 4.352,1.344 1.92,0.768 3.072,1.92 1.216,1.152 1.216,3.008 0,1.728 -0.896,2.88 -0.896,1.088 -2.24,1.728 -1.344,0.64 -2.88,0.896 -1.536,0.192 -2.88,0.192 -1.984,0 -3.84,-0.448 -1.856,-0.512 -3.264,-1.472 -1.344,-1.024 -2.176,-2.624 -0.832,-1.6 -0.832,-3.904 z"
       id="path28" /><path
       style="fill:#ffffff;stroke:#ffffff"
       d="m 110.01,509.04 h 8.896 q -0.192,-3.2 -1.536,-5.504 -1.344,-2.368 -3.52,-3.904 -2.112,-1.6 -4.864,-2.368 -2.688,-0.768 -5.632,-0.768 -4.032,0 -7.168,1.344 -3.136,1.344 -5.312,3.776 -2.176,2.368 -3.328,5.696 -1.088,3.264 -1.088,7.104 0,3.712 1.216,6.848 1.216,3.072 3.392,5.312 2.176,2.24 5.248,3.52 3.136,1.216 6.848,1.216 6.592,0 10.816,-3.456 4.224,-3.456 5.12,-10.048 h -8.768 q -0.448,3.072 -2.24,4.928 -1.728,1.792 -4.992,1.792 -2.112,0 -3.584,-0.96 -1.472,-0.96 -2.368,-2.432 -0.832,-1.536 -1.216,-3.392 -0.384,-1.856 -0.384,-3.648 0,-1.856 0.384,-3.712 0.384,-1.92 1.28,-3.456 0.96,-1.6 2.432,-2.56 1.472,-1.024 3.648,-1.024 5.824,0 6.72,5.696 z"
       id="path30" /><path
       style="fill:#ffffff;stroke:#ffffff"
       d="m 124.23,497.4 v 33.088 h 9.088 v -14.912 q 0,-2.24 0.448,-4.16 0.448,-1.92 1.472,-3.328 1.088,-1.472 2.816,-2.304 1.728,-0.832 4.224,-0.832 0.832,0 1.728,0.128 0.896,0.064 1.536,0.192 v -8.448 q -1.088,-0.32 -1.984,-0.32 -1.728,0 -3.328,0.512 -1.6,0.512 -3.008,1.472 -1.408,0.896 -2.496,2.24 -1.088,1.28 -1.728,2.816 H 132.87 V 497.4 Z"
       id="path32" /><path
       style="fill:#ffffff;stroke:#ffffff"
       d="m 155.97,513.97 q 0,-1.984 0.384,-3.904 0.384,-1.92 1.28,-3.392 0.96,-1.472 2.496,-2.368 1.536,-0.96 3.84,-0.96 2.304,0 3.84,0.96 1.6,0.896 2.496,2.368 0.96,1.472 1.344,3.392 0.384,1.92 0.384,3.904 0,1.984 -0.384,3.904 -0.384,1.856 -1.344,3.392 -0.896,1.472 -2.496,2.368 -1.536,0.896 -3.84,0.896 -2.304,0 -3.84,-0.896 -1.536,-0.896 -2.496,-2.368 -0.896,-1.536 -1.28,-3.392 -0.384,-1.92 -0.384,-3.904 z m -9.088,0 q 0,3.968 1.216,7.168 1.216,3.2 3.456,5.504 2.24,2.24 5.376,3.456 3.136,1.216 7.04,1.216 3.904,0 7.04,-1.216 3.2,-1.216 5.44,-3.456 2.24,-2.304 3.456,-5.504 1.216,-3.2 1.216,-7.168 0,-3.968 -1.216,-7.168 -1.216,-3.264 -3.456,-5.504 -2.24,-2.304 -5.44,-3.52 -3.136,-1.28 -7.04,-1.28 -3.904,0 -7.04,1.28 -3.136,1.216 -5.376,3.52 -2.24,2.24 -3.456,5.504 -1.216,3.2 -1.216,7.168 z"
       id="path34" /><path
       style="fill:#ffffff;stroke:#ffffff"
       d="m 187.24,484.79 v 45.696 h 9.088 V 484.79 Z"
       id="path36" /><path
       style="fill:#ffffff;stroke:#ffffff"
       d="m 203.74,484.79 v 45.696 h 9.088 V 484.79 Z"
       id="path38" /><path
       style="fill:#ffffff;stroke:#ffffff"
       d="m 249.25,497.4 v -9.92 h -9.088 v 9.92 h -5.504 v 6.08 h 5.504 V 523 q 0,2.496 0.832,4.032 0.832,1.536 2.24,2.368 1.472,0.832 3.328,1.088 1.92,0.32 4.032,0.32 1.344,0 2.752,-0.064 1.408,-0.064 2.56,-0.256 v -7.04 q -0.64,0.128 -1.344,0.192 -0.704,0.064 -1.472,0.064 -2.304,0 -3.072,-0.768 -0.768,-0.768 -0.768,-3.072 V 503.48 h 6.656 v -6.08 z"
       id="path40" /><path
       style="fill:#ffffff;stroke:#ffffff"
       d="m 268.3,513.97 q 0,-1.984 0.384,-3.904 0.384,-1.92 1.28,-3.392 0.96,-1.472 2.496,-2.368 1.536,-0.96 3.84,-0.96 2.304,0 3.84,0.96 1.6,0.896 2.496,2.368 0.96,1.472 1.344,3.392 0.384,1.92 0.384,3.904 0,1.984 -0.384,3.904 -0.384,1.856 -1.344,3.392 -0.896,1.472 -2.496,2.368 -1.536,0.896 -3.84,0.896 -2.304,0 -3.84,-0.896 -1.536,-0.896 -2.496,-2.368 -0.896,-1.536 -1.28,-3.392 -0.384,-1.92 -0.384,-3.904 z m -9.088,0 q 0,3.968 1.216,7.168 1.216,3.2 3.456,5.504 2.24,2.24 5.376,3.456 3.136,1.216 7.04,1.216 3.904,0 7.04,-1.216 3.2,-1.216 5.44,-3.456 2.24,-2.304 3.456,-5.504 1.216,-3.2 1.216,-7.168 0,-3.968 -1.216,-7.168 -1.216,-3.264 -3.456,-5.504 -2.24,-2.304 -5.44,-3.52 -3.136,-1.28 -7.04,-1.28 -3.904,0 -7.04,1.28 -3.136,1.216 -5.376,3.52 -2.24,2.24 -3.456,5.504 -1.216,3.2 -1.216,7.168 z"
       id="path42" /><path
       style="fill:#ffffff;stroke:#ffffff"
       d="m 328.18,493.24 v 37.248 h 10.048 V 493.24 h 13.696 v -8.448 h -37.44 v 8.448 z"
       id="path44" /><path
       style="fill:#ffffff;stroke:#ffffff"
       d="m 357.25,513.97 q 0,-1.984 0.384,-3.904 0.384,-1.92 1.28,-3.392 0.96,-1.472 2.496,-2.368 1.536,-0.96 3.84,-0.96 2.304,0 3.84,0.96 1.6,0.896 2.496,2.368 0.96,1.472 1.344,3.392 0.384,1.92 0.384,3.904 0,1.984 -0.384,3.904 -0.384,1.856 -1.344,3.392 -0.896,1.472 -2.496,2.368 -1.536,0.896 -3.84,0.896 -2.304,0 -3.84,-0.896 -1.536,-0.896 -2.496,-2.368 -0.896,-1.536 -1.28,-3.392 -0.384,-1.92 -0.384,-3.904 z m -9.088,0 q 0,3.968 1.216,7.168 1.216,3.2 3.456,5.504 2.24,2.24 5.376,3.456 3.136,1.216 7.04,1.216 3.904,0 7.04,-1.216 3.2,-1.216 5.44,-3.456 2.24,-2.304 3.456,-5.504 1.216,-3.2 1.216,-7.168 0,-3.968 -1.216,-7.168 -1.216,-3.264 -3.456,-5.504 -2.24,-2.304 -5.44,-3.52 -3.136,-1.28 -7.04,-1.28 -3.904,0 -7.04,1.28 -3.136,1.216 -5.376,3.52 -2.24,2.24 -3.456,5.504 -1.216,3.2 -1.216,7.168 z"
       id="path46" /><path
       style="fill:#ffffff;stroke:#ffffff"
       d="m 405.06,524.53 q -2.176,0 -3.712,-0.896 -1.536,-0.896 -2.496,-2.304 -0.896,-1.472 -1.344,-3.392 -0.384,-1.92 -0.384,-3.904 0,-2.048 0.384,-3.968 0.384,-1.92 1.28,-3.392 0.96,-1.472 2.432,-2.368 1.536,-0.96 3.776,-0.96 2.176,0 3.648,0.96 1.536,0.896 2.496,2.432 0.96,1.472 1.344,3.392 0.448,1.92 0.448,3.904 0,1.984 -0.384,3.904 -0.384,1.92 -1.344,3.392 -0.896,1.408 -2.432,2.304 -1.472,0.896 -3.712,0.896 z m -16.704,-27.136 v 44.672 h 9.088 v -15.68 h 0.128 q 1.664,2.432 4.224,3.712 2.624,1.216 5.696,1.216 3.648,0 6.336,-1.408 2.752,-1.408 4.544,-3.776 1.856,-2.368 2.752,-5.44 0.896,-3.072 0.896,-6.4 0,-3.52 -0.896,-6.72 -0.896,-3.264 -2.752,-5.696 -1.856,-2.432 -4.672,-3.904 -2.816,-1.472 -6.72,-1.472 -3.072,0 -5.632,1.216 -2.56,1.216 -4.224,3.904 h -0.128 v -4.224 z"
       id="path48" /></g></g><g
   style="fill:none;stroke:#ffffff"
   transform="matrix(0.233232,0,0,0.233232,75.455254,-21.3282)"
   fill="none"
   stroke="#000000"
   stroke-linecap="round"
   id="g58"><path
     d="m 257.8,272.1 -83.501,-84.045 c -14.053,-14.145 -36.681,-14.145 -50.735,0 L 40.063,272.1"
     stroke-width="29.001"
     style="paint-order:markers stroke fill;fill:none;stroke:#ffffff"
     id="path54" /><path
     style="fill:none;stroke:#ffffff"
     d="M 148.93,185.8 V 404.82"
     stroke-width="30.024"
     id="path56" /></g></svg>
