<svg viewBox="-91 0 512 512" opacity="0.4" xmlns="http://www.w3.org/2000/svg"><path d="m240 376v45l-31.5 31h-87l-31.5-31v-45zm0 0" fill="#c6e2e7"/><path d="m165 376h75v45l-31.5 31h-43.5zm0 0" fill="#a8d3d8"/><path d="m330 165c0 49.199219-21.898438 95.097656-60 126.597656v38.402344l-105 31-105-31v-38.402344c-38.101562-31.5-60-77.398437-60-126.597656 0-90.902344 74.097656-165 165-165s165 74.097656 165 165zm0 0" fill="#ffe470"/><path d="m330 165c0 49.199219-21.898438 95.097656-60 126.597656v38.402344l-105 31v-361c90.902344 0 165 74.097656 165 165zm0 0" fill="#fdbf00"/><path d="m240 421v15c0 5.097656-.601562 11.199219-1.5 16-6.902344 34.199219-37.199219 60-73.5 60s-66.597656-25.800781-73.5-60c-.898438-4.800781-1.5-10.902344-1.5-16v-15zm0 0" fill="#a8d3d8"/><path d="m120 165h30v180h-30zm0 0" fill="#fdbf00"/><path d="m180 165h30v180h-30zm0 0" fill="#ff9f00"/><path d="m105 210c-24.8125 0-45-20.1875-45-45s20.1875-45 45-45 45 20.1875 45 45-20.1875 45-45 45zm0-60c-8.277344 0-15 6.722656-15 15s6.722656 15 15 15 15-6.722656 15-15-6.722656-15-15-15zm0 0" fill="#fdbf00"/><path d="m225 210c-24.8125 0-45-20.1875-45-45s20.1875-45 45-45 45 20.1875 45 45-20.1875 45-45 45zm0-60c-8.277344 0-15 6.722656-15 15s6.722656 15 15 15 15-6.722656 15-15-6.722656-15-15-15zm0 0" fill="#ff9f00"/><path d="m165 421h75v15c0 5.097656-.601562 11.199219-1.5 16-6.902344 34.199219-37.199219 60-73.5 60zm0 0" fill="#8ebac5"/><path d="m60 330h210v61h-210zm0 0" fill="#deecf1"/><path d="m165 330h105v61h-105zm0 0" fill="#c6e2e7"/></svg>