<svg width="293" height="653" viewBox="0 0 293 653" opacity="0.4" fill="none" xmlns="http://www.w3.org/2000/svg">
<path d="M71.1 500.8C71.1 500.8 31.3 509.8 10.1 556.6C-11.1 603.4 16.6 619.2 27.5 618.9L71.1 500.8Z" fill="#9E8045"/>
<path d="M67.6 504.4C67.6 504.4 29.3 514.4 13.5 562C2.19999 595.7 13.9 615.4 24.1 618.6C24.1 618.6 -13 616.2 5.79998 562.5C24.6 508.7 69.8 500.9 69.8 500.9L67.6 504.4Z" fill="#B5924E"/>
<path d="M106.9 583.3C106.9 583.3 79.7 641.4 52.1 641.7C24.5 642 16.2 606 22.5 574.9C28.8 543.8 65 487.8 108.7 485.9C152.4 484 106.9 583.3 106.9 583.3Z" fill="#B5924E"/>
<path d="M79.4 522.2C79.4 522.2 63.9 595.2 65.3 628.2C66.6 661.2 -24.8 630.4 60.9 512.6L79.4 522.2Z" fill="#CAA358"/>
<path d="M95.9 476.9L80.3 639.3C80.3 639.3 121.3 662.7 157.5 648.3L174.8 485.9L95.9 476.9Z" fill="#252A26"/>
<path d="M235.6 477L252.7 641.2C252.7 641.2 210.3 661 175.9 649.2L156.8 485.7L235.6 477Z" fill="#252A26"/>
<path d="M90.5 369.9V507.8C90.5 507.8 109.5 515.5 163.7 515.5C217.9 515.5 239 507.8 239 507.8L241 369.2C241 369.2 234 309.7 176 308C127 306.5 90.5 314 90.5 369.9Z" fill="#234969"/>
<path d="M69.7 220.1C58.2 220.1 48.8 210.7 48.8 199.2V174.5C48.8 163 58.2 153.6 69.7 153.6C81.2 153.6 90.6 163 90.6 174.5V199.2C90.5 210.7 81.1 220.1 69.7 220.1Z" fill="#DBA97F"/>
<path d="M257.9 220.1C246.4 220.1 237 210.7 237 199.2V174.5C237 163 246.4 153.6 257.9 153.6C269.4 153.6 278.8 163 278.8 174.5V199.2C278.7 210.7 269.3 220.1 257.9 220.1Z" fill="#DBA97F"/>
<path d="M182.8 315.8H144.7C143.7 315.8 142.9 315 142.9 314V253.3C142.9 252.3 143.7 251.5 144.7 251.5H182.8C183.8 251.5 184.6 252.3 184.6 253.3V314C184.6 315 183.8 315.8 182.8 315.8Z" fill="#EEC19C"/>
<path d="M163.8 305.3C152.3 305.3 142.9 295.9 142.9 284.4V261.8C142.9 250.3 152.3 240.9 163.8 240.9C175.3 240.9 184.7 250.3 184.7 261.8V284.4C184.6 295.9 175.2 305.3 163.8 305.3Z" fill="#DBA97F"/>
<path d="M169 293H155.7C113.6 293 69.7 258.6 69.7 216.5V98.8C69.7 56.7 104.1 22.3 146.2 22.3H181.4C223.5 22.3 257.9 56.7 257.9 98.8V204.1C257.9 253 217.9 293 169 293Z" fill="#EEC19C"/>
<path d="M142.9 308.4C142.9 308.4 129.6 310.5 140.6 325.2C155.2 344.8 165.8 346.4 181.7 331.3C204.6 309.5 184.7 308.4 184.7 308.4H142.9V308.4Z" fill="#EEC19C"/>
<path d="M129.6 196.8C125.7 196.8 122.5 193.6 122.5 189.7V180.4C122.5 176.5 125.7 173.3 129.6 173.3C133.5 173.3 136.7 176.5 136.7 180.4V189.7C136.6 193.6 133.4 196.8 129.6 196.8Z" fill="#352312"/>
<path d="M200.6 196.8C196.7 196.8 193.5 193.6 193.5 189.7V180.4C193.5 176.5 196.7 173.3 200.6 173.3C204.5 173.3 207.7 176.5 207.7 180.4V189.7C207.7 193.6 204.5 196.8 200.6 196.8Z" fill="#352312"/>
<path d="M140.9 139.4C140.9 139.4 113.9 123.8 89.3 148.3L84 137.6C84 137.6 102.8 109.6 140.9 126.6V139.4Z" fill="#8D3131"/>
<path d="M188.5 138.3C188.5 138.3 214.2 120.7 240.6 143.2L245 132.1C245 132.1 224.1 105.6 187.4 125.6L188.5 138.3Z" fill="#8D3131"/>
<path d="M166.4 206C166.4 206 185.2 227.1 159.7 231.2C159.7 231.2 195.1 231.2 166.4 206Z" fill="#DBA97F"/>
<path d="M99.5 229.3C108.005 229.3 114.9 225.181 114.9 220.1C114.9 215.019 108.005 210.9 99.5 210.9C90.9948 210.9 84.1 215.019 84.1 220.1C84.1 225.181 90.9948 229.3 99.5 229.3Z" fill="#EFCAAC"/>
<path d="M231.2 228.8C239.705 228.8 246.6 224.681 246.6 219.6C246.6 214.519 239.705 210.4 231.2 210.4C222.695 210.4 215.8 214.519 215.8 219.6C215.8 224.681 222.695 228.8 231.2 228.8Z" fill="#EFCAAC"/>
<path d="M131.3 311.1C131.3 311.1 98.1 314.8 75.4 344.9C56.9 369.5 45.6 437.3 45.6 437.3L90.5 441.7L102 376.4C102 376.4 105.9 330 131.3 311.1Z" fill="#386B95"/>
<path d="M194.5 311.1C194.5 311.1 238.7 314.1 257.7 346.9C274.9 376.5 280.4 428 280.4 428L241 439.5L225.6 376.4C225.6 376.4 224.5 331 194.5 311.1Z" fill="#386B95"/>
<path d="M177.6 262.1C177.6 262.1 166 273.6 153.9 262.1C153.9 262.1 158.6 266.7 177.6 262.1Z" fill="#754C29"/>
<path opacity="0.3" d="M76.6 170.7V191.9L84.5 209.9L96 218.6L114 222.2L133.4 219.3L145.7 209.9L153.9 188.4V174.3L147.8 168.2L122.3 162.5H102.9L76.6 170.7Z" fill="white"/>
<path opacity="0.3" d="M255 170.7V191.9L247.1 209.9L235.6 218.6L217.6 222.2L198.2 219.3L185.9 209.9L177.7 188.4V174.3L183.8 168.2L209.3 162.5H228.7L255 170.7Z" fill="white"/>
<path d="M263.4 169.6C262.9 162.8 250.7 163.3 250.7 163.3C209.1 149.1 175.8 169.6 175.8 169.6C174.7 170 173.8 170.5 172.9 171C171.1 171.4 168.9 171.8 166.4 171.8C160.5 171.8 155.9 169.6 155.9 169.6C155.9 169.6 122.6 149.1 81 163.3C81 163.3 68.8 162.8 68.3 169.6C67.8 176.4 72 173.8 73.5 185.3C75.1 196.8 77.5 224.2 114.5 225.3C154.8 226.5 158 191.2 158 191.2C158 191.2 160.5 184.6 163.6 184.3H168.2C171.3 184.6 173.8 191.2 173.8 191.2C173.8 191.2 177.1 226.5 217.3 225.3C254.3 224.2 256.7 196.8 258.2 185.3C259.7 173.8 263.9 176.5 263.4 169.6ZM143.5 207.9C135 219.7 100.5 225.9 88.4 209.9C77 194.8 78.3 174.1 82.3 171.7C110.9 155.2 148 170.8 150.7 174.8C153.3 178.9 152.2 195.8 143.5 207.9ZM243.2 209.9C231.1 225.9 196.6 219.8 188.1 207.9C179.4 195.8 178.3 178.9 180.9 174.9C183.5 170.8 220.7 155.2 249.3 171.8C253.2 174.1 254.6 194.8 243.2 209.9Z" fill="#21170E"/>
<path d="M278.7 107C287 162.4 252 179.5 252 179.5C267.9 150.7 225.7 111.7 225.7 111.7C239.3 138.5 216.4 155.5 216.4 155.5C216.4 155.5 230.2 75.9 106 89.5C65.1 118 69.8 179.4 69.8 179.4C23.1 142.3 47.6 74.5 47.6 74.5H31.6C36.9 64.7 47.8 67.6 48.4 67.7C34.2 55.7 50.6 43.7 50.6 43.7C45.6 53.7 50.6 60.1 50.6 60.1C50.6 60.1 56.2 49.8 68.2 37.7C87.6 18.3 123.5 -5.50001 179.6 1.89999C299.7 17.8 292 121.1 292 121.1C281.6 109.7 278.7 107 278.7 107Z" fill="#A43939"/>
<path d="M216.3 155.6C200.6 94 105.9 89.6 105.9 89.6C230.2 76 216.3 155.6 216.3 155.6Z" fill="#A43939"/>
<path d="M69.7 179.6C23 142.5 47.5 74.7 47.5 74.7H31.5C36.8 64.9 47.7 67.8 48.3 67.9C34.1 55.9 50.5 43.9 50.5 43.9C45.5 53.9 50.5 60.3 50.5 60.3C50.5 60.3 56.1 50 68.1 37.9C27.9 133 69.7 179.6 69.7 179.6Z" fill="#892D2D"/>
<path d="M216.3 155.6C200.6 94 105.9 89.6 105.9 89.6C215.9 67.3 216.3 155.6 216.3 155.6Z" fill="#892D2D"/>
<path d="M252 179.6C252 179.6 270.7 168.9 257.9 142.5C245.1 116.1 225.7 111.8 225.7 111.8C225.7 111.8 265.6 153.2 252 179.6Z" fill="#892D2D"/>
<path d="M292 121.1C292 121.1 278.3 48.4 207.7 22.2C137.9 -3.69998 69.8 36.8 68.2 37.8C87.6 18.4 123.5 -5.39997 179.6 2.00003C299.7 17.8 292 121.1 292 121.1Z" fill="#C14445"/>
<path d="M189.2 308.4C189.2 308.4 106 450.7 60.8 513.8L78.8 524.8C78.8 524.8 195.7 347.6 207.6 312.3C207.7 312.3 196.8 307.9 189.2 308.4Z" fill="#DDB260"/>
<path d="M159.6 399C159.6 399 164.8 403.5 170 399V403C170 403 165.6 408.5 159.6 403V399Z" fill="#503212"/>
<path d="M162 371C162 371 129.1 326.8 46.8 353.4L41.7 369.1L162.5 385L284 375.5L278.4 352.3C278.4 352.3 214.5 322.5 162 371Z" fill="#E6E7E8"/>
<path d="M271 418.5C271 418.5 281.5 423.4 271 429C260.5 434.5 261 417.5 271 418.5Z" fill="#EEC19C"/>
<path d="M157.6 374C157.6 374 124 335.7 37.7 364.3V368.6L157.6 378V374Z" fill="#503212"/>
<path d="M53 418.5C53 418.5 42.5 423.4 53 429C63.5 434.5 63 417.5 53 418.5Z" fill="#EEC19C"/>
<path d="M168 374C168 374 201.6 335.7 287.9 364.3V368.6L168 378V374Z" fill="#503212"/>
<path d="M77.6 499.8L37.7 368.6C37.7 368.6 108.4 338.6 157.6 378L161.8 507.4C161.8 507.3 112.1 493.2 77.6 499.8Z" fill="#754C29"/>
<path d="M247.9 499.8L287.8 368.6C287.8 368.6 217.1 338.6 167.9 378L163.7 507.4C163.8 507.3 213.4 493.2 247.9 499.8Z" fill="#754C29"/>
<path d="M161.8 507.3C161.8 507.3 161.9 510.3 163.8 507.3L168 378C168 378 163.6 382.4 157.6 378L161.8 507.3Z" fill="#8C5C33"/>
<path d="M276.7 435C276.7 435 261.4 422 252.9 430C244.4 438 270.9 446.5 270.9 446.5C270.9 446.5 282.1 447 276.7 435Z" fill="#EEC19C"/>
<path d="M271 446.5C271 446.5 255.1 439 251.3 446.5C251.3 446.5 249.7 447.4 250.6 452C250.6 452 244.9 465.4 250.1 470.5C250.1 470.5 261 478 271 465.5C281 453 271 446.5 271 446.5Z" fill="#EEC19C"/>
<path d="M47.3 435C47.3 435 62.6 422 71.1 430C79.6 438 53.1 446.5 53.1 446.5C53.1 446.5 41.9 447 47.3 435Z" fill="#EEC19C"/>
<path d="M53 446.5C53 446.5 68.9 439 72.7 446.5C72.7 446.5 74.3 447.4 73.4 452C73.4 452 79.1 465.4 73.9 470.5C73.9 470.5 63 478 53 465.5C43 453 53 446.5 53 446.5Z" fill="#EEC19C"/>
</svg>